<?xml version="1.0" encoding="utf-8"?>
<!-- Generator: Adobe Illustrator 19.2.1, SVG Export Plug-In . SVG Version: 6.00 Build 0)  -->
<svg version="1.1" id="Layer_1" xmlns="http://www.w3.org/2000/svg" xmlns:xlink="http://www.w3.org/1999/xlink" x="0px" y="0px"
	 viewBox="0 0 153 175.3" style="enable-background:new 0 0 153 175.3;" xml:space="preserve">
<style type="text/css">
	.st0{opacity:0.5;fill:#E45B3B;}
	.st1{opacity:0.3;fill:#E45B3B;}
	.st2{opacity:0.6;fill:#E45B3B;}
</style>
<path class="st0" d="M32.1,21.3c0,0-86.1,112.6,46.2,150.1L32.1,21.3z"/>
<path class="st0" d="M79.3,171.1C167.6,65.7,33.1,21,33.1,21L79.3,171.1z"/>
<path class="st0" d="M117.7,19.6c0,0-132.6,50.3-39.9,151.9L117.7,19.6z"/>
<path class="st0" d="M78.7,171.7c130.6-43,39.9-151.9,39.9-151.9L78.7,171.7z"/>
<path class="st1" d="M15.1,50.1c0,0-55.2,109.7,63.4,120.4L15.1,50.1z"/>
<path class="st1" d="M79.2,170.1C137.5,66.2,15.8,49.7,15.8,49.7L79.2,170.1z"/>
<path class="st1" d="M134.8,46.1c0,0-120.6,23-56.9,123.6L134.8,46.1z"/>
<path class="st1" d="M78.7,170.1c117.9-17,56.9-123.6,56.9-123.6L78.7,170.1z"/>
<path class="st2" d="M77,5c0,0-122,87,0,166V5z"/>
<path class="st2" d="M78,171C200,92,78,5,78,5V171z"/>
</svg>
